<svg xmlns="http://www.w3.org/2000/svg" viewBox="0 0 448 512" width="448" height="512">
	<style>
		tspan { white-space:pre }
		.shp0 { fill: #82ccdd } 
	</style>
	<path id="Layer" class="shp0" d="M16 132L432 132C440.84 132 448 124.84 448 116L448 76C448 67.16 440.84 60 432 60L16 60C7.16 60 0 67.16 0 76L0 116C0 124.84 7.16 132 16 132ZM16 292L432 292C440.84 292 448 284.84 448 276L448 236C448 227.16 440.84 220 432 220L16 220C7.16 220 0 227.16 0 236L0 276C0 284.84 7.16 292 16 292ZM16 452L432 452C440.84 452 448 444.84 448 436L448 396C448 387.16 440.84 380 432 380L16 380C7.16 380 0 387.16 0 396L0 436C0 444.84 7.16 452 16 452Z" />
</svg>