<svg xmlns="http://www.w3.org/2000/svg" viewBox="0 0 630 673" width="630" height="673">
	<style>
		tspan { white-space:pre }
		.shp0 { fill: #ffffff } 
		.shp1 { fill: none;stroke: #82ccdd;stroke-linecap:round;stroke-linejoin:round;stroke-width: 2.6 } 
	</style>
	<g id="Calque_1">
		<g id="Layer">
			<g id="Layer">
				<path id="Layer" class="shp0" d="M594.8 140L585.3 136.6L568.7 136L568.3 135.9L566.6 140.9L565 144L555 144.2L544.8 139.1L543.8 135.9L538.4 148.1L544.5 150.8L542.6 153.6L545.2 155.4L546.8 152.5L550 152.9L554.9 156.8L551.6 171.7L549.1 173.6L545.1 173.3L547.3 174.8L545.8 186L551.6 188.6L550.5 189.6L545.8 204.7L540.4 213.6L540.4 220.5L537.3 223.2L545.8 228.8L546.3 238.8L549.5 238.8L551.9 244.6L552.3 244.5L555.5 245.3L554.6 248.6L563.1 248.6L566.2 247.5L566.8 244.1L570 243.9L570.1 240.4L572.7 238.2L569.4 229.5L572.5 212.2L570.4 200.6L577 184.9L578.6 167.4L590.4 152L594.8 140Z" />
				<path id="Layer" class="shp0" d="M502.5 108.6L497.5 112.5L494.4 112.7L488.3 109.9L484.6 106.7L476.9 106.7L475.5 109.9L469.2 110.6L465.4 102.5L464.9 102.5L464.7 102.6L462.6 104.1L460.2 107.1L453.9 104.8L451.7 107L452.7 116.9L449.2 122.5L450.6 125.4L445.9 129.4L448.4 139.6L447.2 144.1L450.2 145.6L449.4 150.1L446 151.2L444.7 157.8L448.4 163L448.9 167.5L452.8 173.3L471.7 184.9L469 187.7L483.4 198.4L481.4 208L487.5 213.1L487.8 216.7L490.8 215.5L492.3 218.3L501.3 211.9L509.3 216.6L515.5 214.9L521.1 219L526.9 216.4L536.3 223.9L537.3 223.2L537.3 223.2L540.4 220.5L540.4 213.6L545.8 204.7L550.5 189.6L551.6 188.6L545.8 186L547.3 174.8L545.1 173.3L549.1 173.6L551.6 171.7L554.9 156.8L550 152.9L546.8 152.5L545.2 155.4L542.6 153.6L544.5 150.8L538.4 148.1L543.8 135.9L544.8 139.1L555 144.2L565 144L566.6 140.9L568.3 135.9L568.4 135.8L559.4 127.7L552.2 132.4L544.5 130.9L541.6 132.4L539.1 128L535.7 126.4L532.6 128.1L532.3 131.4L529.1 130.6L520.1 120.4L518.3 113.9L514.9 111.5L502.5 108.6Z" />
				<path id="Layer" class="shp0" d="M403.4 54.1L396.7 55.3L390.5 53.9L388 56.1L385.6 45.9L379.5 44.5L378.2 41.4L375 43.9L371.5 42.6L368 33.1L368.5 29.8L364.1 24.8L357.6 25.4L351.3 29.7L348 28.2L344.8 22.4L341.1 22.4L339.6 19.4L340.8 12.9L338 6.2L334.8 4.3L316.2 8.9L301.2 13.7L294.7 19.3L294.6 39.5L297.9 43.4L294.8 41.4L294 48.1L294.4 52.3L297.2 54.2L310.2 55.6L311.3 59L319.2 65.4L332.6 62.7L329.7 69L331.6 72.6L334.4 69.1L343.9 73L344.9 69.9L348 75L350.6 73.2L351.6 76.7L361.1 74.7L364.8 77.6L379 76.9L381.9 74.4L384.5 76.4L390.4 74.4L408.5 79.2L412.2 72.1L408.8 66.2L411.2 59L408 59.7L403.4 54.1Z" />
				<path id="Layer" class="shp0" d="M412.7 80.5L412.3 80.6L413.2 87.1L411.6 91L413.2 94.5L407.6 102.5L404.4 102.9L404.8 118.9L403.7 122.1L397.7 120L388.9 124.6L387.4 127.5L391 136.5L384.8 139L386.7 141.7L385.7 144.9L388.6 146.2L380 157.7L379.5 160L376.6 162.4L380.5 171.9L383.4 173.6L380.1 179.2L376.7 180L377.2 189.7L381.4 191.3L386.3 197.5L389.1 206.9L391.3 204.4L395.4 209L401 221.3L415.2 219.5L418.5 221L420.9 218.8L427.7 217.8L433 213.4L441.3 214.7L442 217.8L444.9 218.9L444.5 222.2L447.8 222.5L449.7 225L451 228.4L447.7 231.1L450.3 236.6L460.7 238.8L464 240.6L464 243.7L469.5 241.6L469.6 241.5L470.7 238.8L478.1 234.4L480.6 236.4L484.1 235.3L484.4 226L486.8 223.3L489.9 223.6L492.5 220L492.3 218.4L492.3 218.3L490.8 215.5L487.8 216.7L487.5 213.1L481.4 208L483.4 198.4L469 187.7L471.7 184.9L452.8 173.3L448.9 167.5L448.4 163L444.7 157.8L446 151.2L449.4 150.1L450.2 145.6L447.2 144.1L448.4 139.6L445.9 129.4L450.6 125.4L449.2 122.5L452.7 116.9L451.7 107L453.9 104.8L460.2 107.1L462.6 104.1L464.7 102.6L461.8 102.9L461.8 99.3L455 97.6L447.4 91L440.8 91.1L441.8 83.9L438.6 77.4L438.6 72.8L441.6 67.1L438.6 65.3L433.9 70.2L432 77.4L422.2 81.8L416.2 79.9L412.7 80.5Z" />
				<path id="Layer" class="shp0" d="M412.3 80.6L412.3 80.4L408.5 79.2L390.4 74.4L384.5 76.4L381.9 74.4L379 76.9L364.8 77.6L361.1 74.7L351.6 76.7L350.6 73.2L348 75L344.9 69.9L343.9 73L334.4 69.1L331.6 72.6L329.7 69L332.6 62.7L319.2 65.4L311.3 59L310.2 55.6L297.2 54.2L292.9 55.8L292.5 59.1L295.9 65.3L292.8 63.7L285.3 74L285.2 74.1L298.9 85.9L302.8 95.3L299.3 100.6L300.8 110.4L299.4 119.4L303.3 128.9L298.9 131.6L300.6 135.2L306.9 136.5L314 134.5L324.3 137L326.8 135.1L339.1 142.3L346.8 143.4L349 141L351.9 142.9L360.9 139.5L363.9 140.3L365.9 143.1L365.1 146.2L369.5 150.9L380 157.6L380 157.7L388.6 146.2L385.7 144.9L386.7 141.7L384.8 139L391 136.5L387.4 127.5L388.9 124.6L397.7 120L403.7 122.1L404.8 118.9L404.4 102.9L407.6 102.5L413.2 94.5L411.6 91L413.2 87.1L412.3 80.6Z" />
				<path id="Layer" class="shp0" d="M389.1 206.9L386.3 197.5L381.4 191.3L377.2 189.7L359.9 193.1L359.6 199.6L355.4 205.6L362.8 214.1L363.2 220.5L358.2 226L359.3 229.3L357.6 231.8L351.6 235.7L354.9 238.8L357.5 246.5L354.3 247.3L352.7 250L354.9 257.3L353 263.9L356 266.2L359.5 274.7L359.8 281.3L362.3 283.6L362 290.1L360.5 300.1L367 307.2L374.2 307.3L377.3 305.5L382.2 309.5L388.9 302.9L396.4 318L405.2 321.3L407.1 323.9L406.5 330.1L402.4 335.4L402.4 338.8L408.2 342.4L417.2 340.7L419.5 343.2L425.9 338.8L426.2 335.5L428.9 333.3L431.4 335.4L433.9 333.3L436.7 335.2L438.4 332.6L444.8 341.2L451.4 317.7L458 319.4L464.1 318L469.6 321.6L469.5 321.6L472.6 320.3L471.7 314.5L474.9 308.9L472.4 299.1L469.6 297.3L475.3 293.1L466 288.3L465.5 284.9L466.7 280.2L473.7 272.7L475.7 263.4L477.1 262L472.6 252.9L469.6 251.2L474.9 246.7L474.8 243.1L472.4 239.6L469.6 241.5L469.5 241.6L464 243.7L464 240.6L460.7 238.8L450.3 236.6L447.7 231.1L451 228.4L449.7 225L447.8 222.5L444.5 222.2L444.9 218.9L442 217.8L441.3 214.7L433 213.4L427.7 217.8L420.9 218.8L418.5 221L415.2 219.5L401 221.3L395.4 209L391.3 204.4L389.1 206.9Z" />
				<path id="Layer" class="shp0" d="M484.4 226L484.1 235.3L480.6 236.4L478.1 234.4L470.7 238.8L469.6 241.5L472.4 239.6L474.8 243.1L474.9 246.7L469.6 251.2L472.6 252.9L477.1 262L475.7 263.4L473.7 272.7L466.7 280.2L465.5 284.9L466 288.3L475.3 293.1L469.6 297.3L472.4 299.1L474.9 308.9L471.7 314.5L472.6 320.3L469.5 321.6L469.6 321.6L474.4 330.2L477.6 330.3L477.7 333.7L480.9 333.4L485.4 328.6L489.2 330.4L489.7 333.5L494.1 333.3L500.2 329.6L506 322.2L510 308.7L523.1 296.6L522.3 285.7L531.9 279L545 262.8L544.8 259.6L547.4 257.2L542.6 253.2L543.6 249.9L547.9 245.1L551.9 244.6L549.5 238.8L546.3 238.8L545.8 228.8L537.3 223.2L537.3 223.2L536.3 223.9L526.9 216.4L521.1 219L515.5 214.9L509.3 216.6L501.3 211.9L492.3 218.3L492.3 218.4L492.5 220L489.9 223.6L486.8 223.3L484.4 226Z" />
				<path id="Layer" fill-rule="evenodd" class="shp0" d="M537 321.3L540.6 322.1L540.2 325.3L544.4 331.3L541.7 338.3L550.5 346.6L554.3 351.7L553.2 355.2L543.7 364.4L544.3 368L547.5 371L553.8 373.6L553 377.1L555.5 383.2L563.7 389L560.5 394.8L561.9 397.7L559.6 401.8L537.9 411.1L530.4 412.5L528.1 414.7L519.4 410.7L517.6 415.1L519.6 419.8L524.6 423.2L524.1 429.8L520.6 428.6L506.5 432.8L505.5 436L499.3 437.4L498.3 440.8L497.9 444.6L491.4 444.9L488.6 452.5L492 455.1L489.2 457.9L484.5 456.3L480.9 462L482.5 465L493.8 471.3L493.6 476.7L489.8 477L485 482.3L479.2 479.7L479.1 476.6L468.7 475.6L468.1 469.2L465.2 471.6L462.6 470L452.8 474.4L448.8 469.6L442.3 468.9L442.3 473L435.6 469.2L432.5 469.1L429.6 471.7L429.5 468.1L421.6 473.1L412.9 467.5L405 451.5L402.7 441.3L410.3 434.1L417 432L420.6 425.4L424.5 425L423.7 421.7L426.7 419.2L428.3 413.3L431.2 414.7L431.2 411.2L432.3 406.6L429.8 404L426.8 405.1L426.1 398.9L419.3 396.4L412.3 399.8L409.2 400.1L406.6 397.9L403.6 398.9L406.8 390.8L403.8 382.5L398.7 378.3L393.4 369.6L395.7 362.6L393 359.4L399.1 354.1L397.4 340.2L398 336.8L402.4 335.4L402.4 338.8L408.2 342.4L417.2 340.7L419.5 343.2L425.9 338.8L426.2 335.5L428.9 333.3L431.4 335.4L433.9 333.3L436.7 335.2L438.4 332.6L444.8 341.2L451.4 317.7L458 319.4L464.1 318L469.6 321.6L474.4 330.2L477.6 330.3L477.7 333.7L480.9 333.4L485.4 328.6L489.2 330.4L489.7 333.5L494.1 333.3L500.2 329.6L506 322.2L510.1 324.6L508.8 332.4L502.4 336.4L501.8 342.1L509.6 341L517.5 335.1L514.9 331.6L518 325L521.9 326.7L527.5 322L537 321.3ZM455.8 470L460.4 468.6L463 464.6L458 461.5L455 464L453.6 467.5L455.8 470Z" />
				<path id="Layer" class="shp0" d="M455 464L453.6 467.5L455.8 470L460.4 468.6L463 464.6L458 461.5L455 464Z" />
				<path id="Layer" class="shp0" d="M407.1 323.9L405.2 321.3L396.4 318L388.9 302.9L382.2 309.5L377.3 305.5L374.2 307.3L367 307.2L360.5 300.1L356 300.1L350.6 304.3L341.2 307.5L338.6 309.6L340.5 315.6L338.6 318.3L328.9 319.4L324.8 326.1L326.2 330.5L334.4 335.9L338.5 345.3L338 349.9L340.6 357.5L330 367L335.1 373.3L336.4 379.6L334.4 382.2L336.6 397.9L329.7 395.7L328.9 399.6L320.4 410.3L322.5 412.7L319.8 414.9L319.5 418.7L316 420.1L317.8 423.7L314.2 425.9L315.1 432.1L319.4 438.8L317.5 445.2L321.1 450.9L326.9 447.2L334 449L338.3 443.5L341.8 433.3L347.1 428.5L352.8 433.1L354.2 437.8L357 439.6L356.4 442.9L359.4 448.7L359.4 448.7L367.1 430.8L369 433.5L377.8 425.9L380.3 427.8L382 434.2L389.1 435.6L389.4 432.4L392.6 432.7L402.7 441.3L410.3 434.1L417 432L420.6 425.4L424.5 425L423.7 421.7L426.7 419.2L428.3 413.3L431.2 414.7L431.2 411.2L432.3 406.6L429.8 404L426.8 405.1L426.1 398.9L419.3 396.4L412.3 399.8L409.2 400.1L406.6 397.9L403.6 398.9L406.8 390.8L403.8 382.5L398.7 378.3L393.4 369.6L395.7 362.6L393 359.4L399.1 354.1L397.4 340.2L398 336.8L402.4 335.4L406.5 330.1L407.1 323.9Z" />
				<path id="Layer" class="shp0" d="M402.7 441.3L392.6 432.7L389.4 432.4L389.1 435.6L382 434.2L380.3 427.8L377.8 425.9L369 433.5L367.1 430.8L359.4 448.7L364.1 453.8L367.4 463.6L366.7 473.4L368.5 476.1L379.2 481.2L376.7 485.5L373.7 486.7L383.1 491.5L378.2 497.3L378.6 499L374.4 500.1L371 506.1L364 504.6L363.8 514.5L357.6 514.3L349.9 519.2L343 516.8L343.8 527.7L342.8 530.9L339.1 533.3L325.7 531.7L322.5 532.2L321.2 535.9L314.2 535L312.3 532.7L311.6 533.2L305.7 535.2L304.1 532.2L294.7 543.5L297.3 549.7L307.1 554L309.4 559.9L309.6 563.3L307.1 565.9L309.9 568.7L308.5 572L305 572.6L305.9 579.2L309.7 580.8L313.4 579.4L318.8 585.8L310.4 586L309 588.9L299.7 591.9L299.8 592.1L297.7 597.5L307.5 600.5L310.1 606.8L313.8 607.1L318.8 602.6L322.3 602.4L333 604.8L338.1 608.8L345.1 608.2L345.1 605L354.2 600.2L361.3 599L370.9 601.6L364.5 593.5L364 573.7L364.5 562.6L370.9 550.7L373.7 547.7L380 543.1L387.6 543.1L395 534.9L407.3 525.9L416.7 523.3L420 528.9L422.9 529.5L423 529.5L427.2 522.7L433.7 520.8L432.5 517.8L437.3 512.5L440.9 513.4L443.1 501.5L452.6 491.3L445.5 484.1L445.2 478L442.3 473L435.6 469.2L432.5 469.1L429.6 471.7L429.5 468.1L421.6 473.1L412.9 467.5L405 451.5L402.7 441.3Z" />
				<path id="Layer" fill-rule="evenodd" class="shp0" d="M448.8 469.6L452.8 474.4L462.6 470L465.2 471.6L468.1 469.2L468.7 475.6L479.1 476.6L479.2 479.7L485 482.3L489.8 477L493.6 476.7L493.8 471.3L482.5 465L480.9 462L484.5 456.3L489.2 457.9L492 455.1L488.6 452.5L491.4 444.9L497.9 444.6L498.3 440.8L499.3 437.4L505.5 436L506.5 432.8L520.6 428.6L524.1 429.8L524.6 423.2L519.6 419.8L517.6 415.1L519.4 410.7L528.1 414.7L530.4 412.5L537.9 411.1L540.6 417.1L543.6 417.2L544.6 424.6L550.5 428.3L557.3 428.6L561.5 439.1L557.5 439L555.3 441.6L553.8 448.4L551.3 450.4L555.6 456.5L553.5 462L560.6 470.5L567.6 471.9L577.9 477.4L591.3 472.7L595.8 478.5L593.5 483.5L586.5 493.1L586 501.3L569.8 510.1L568.6 514.8L562.1 517.8L557.3 526.4L551.1 527.2L544.3 536.3L548.3 538.2L545.8 544.2L541.5 543.9L538.5 546.7L532.1 548L532.1 551.2L523.8 549.8L521.5 556.1L520.1 552.9L513.5 551.1L503.5 554L503.9 550.8L496.8 546.7L493.7 547.7L482.8 544.9L478.4 535L463.5 536.7L458.4 530.7L455.4 530.3L453.9 533.2L456.3 535.8L445.5 537L441.4 536.1L441.9 533L439.7 530.2L423.4 529.7L423 529.5L427.2 522.7L433.7 520.8L432.5 517.8L437.3 512.5L440.9 513.4L443.1 501.5L452.6 491.3L445.5 484.1L445.2 478L442.3 473L442.3 468.9L448.8 469.6ZM462.1 527.5L467.3 532.3L470.9 531.1L473.4 526.8L469.6 528.4L467.3 523.8L462.7 523.8L462.1 527.5Z" />
				<path id="Layer" class="shp0" d="M467.3 523.8L462.7 523.8L462.1 527.5L467.3 532.3L470.9 531.1L473.4 526.8L469.6 528.4L467.3 523.8Z" />
				<path id="Layer" class="shp0" d="M300.8 110.4L299.3 100.6L302.8 95.3L298.9 85.9L285.2 74.1L285.1 74.1L285 74.1L273.2 82.5L248.3 88.6L232.3 97.3L225.9 111.4L227.8 113.9L237.8 116.2L236 116.9L235.5 117.1L235.8 126.8L239 126.8L236.4 129.1L239.6 139.8L238 143L240.6 147.7L239.9 150.1L240 153.7L247.1 154.4L255.9 165L254 167.5L257.8 169.9L260.6 167L267.2 165.9L273.2 162.3L276.4 164L283.1 162.5L282.8 159.4L289.4 151.7L289.4 151.7L287.5 145.1L290.1 142.3L294.4 142.3L298.9 131.6L298.9 131.6L303.3 128.9L299.4 119.4L300.8 110.4Z" />
				<path id="Layer" class="shp0" d="M238 143L239.6 139.8L236.4 129.1L239 126.8L235.8 126.8L235.5 117.1L228.3 118.7L222.8 123.5L212 126.5L202.5 122.5L188.5 121L177.8 117.2L171.8 119.9L164.6 108L167.3 99.2L166.2 96.1L158.9 95.4L156.1 97.4L148.7 97.9L136 92.7L135.8 95.9L139.4 97.9L140 103.4L137.9 105.6L140.8 117.1L150.3 127.4L148.8 138.7L151 141.8L150.4 148.5L147.9 154.9L152.6 165.5L155.5 166.9L158.3 165.1L157.2 168.5L149 169.3L148.6 169.5L153.9 180.1L156.9 181.2L164.8 175.8L171 178.4L171 178.5L180.6 179.3L184.4 183.5L187.1 181.8L189.9 183.7L197.5 179.9L207.7 179.9L208.4 176.9L211.5 177.2L213.7 183.9L217.3 185.6L217.4 188.9L220.8 189L233.1 182.5L236.1 184.1L238 193.7L246.1 199.2L249.3 198.1L252.8 202L256.4 202.9L256.4 202.8L255.3 194.5L263.6 188.6L263.2 178.5L257.9 173.5L257.8 169.9L254 167.5L255.9 165L247.1 154.4L240 153.7L239.9 150.1L240.6 147.7L238 143Z" />
				<path id="Layer" class="shp0" d="M260.6 167L257.8 169.9L257.9 173.5L263.2 178.5L263.6 188.6L255.3 194.5L256.4 202.8L256.4 202.9L258.8 207.1L258.3 209.2L256 211.5L258.1 214.1L258.4 220.2L251.4 232.1L247.8 233.2L247.2 237.2L238.5 242.3L235.4 241.9L236 245.6L229.1 242.7L228.3 245.4L226.4 255.9L220 273.1L220 273.1L225.9 276.8L226.4 280.3L229.7 280L231.1 286.8L234.2 288.5L245.5 288L243.9 284.7L249.9 288L250.2 291.5L260.4 306.2L259.5 312.7L264.8 317.5L268.1 317.5L270.9 323.6L273.7 325L272.1 328.3L274.9 329.6L281.4 328.3L283.4 331L286.6 327.7L299.4 326.6L301.6 323.8L316.3 326.8L319.5 325.9L324.8 326.1L328.9 319.4L338.6 318.3L340.5 315.6L338.6 309.6L341.2 307.5L350.6 304.3L356 300.1L360.5 300.1L362 290.1L362.3 283.6L359.8 281.3L359.5 274.7L356 266.2L353 263.9L354.9 257.3L352.7 250L354.3 247.3L357.5 246.5L354.9 238.8L351.6 235.7L357.6 231.8L359.3 229.3L358.2 226L363.2 220.5L362.8 214.1L355.4 205.6L355.3 205.5L342.7 208.6L332.5 207.9L335.3 206.1L336 203L331.4 198.2L330.6 194.8L326.4 194.1L323.3 196L321.5 193.1L319.5 196.3L311.7 197.1L308.5 185.2L305 186L302.6 183.5L301.1 177.3L294.1 171.1L293.6 159L289.4 151.7L282.8 159.4L283.1 162.5L276.4 164L273.2 162.3L267.2 165.9L260.6 167Z" />
				<path id="Layer" class="shp0" d="M211.5 177.2L208.4 176.9L207.7 179.9L197.5 179.9L189.9 183.7L187.1 181.8L184.4 183.5L180.6 179.3L171 178.5L170.9 192L169.2 194.6L171.3 214.1L165.2 216.6L161.1 226.3L160.7 228.6L153 224.7L142.9 229.1L141.1 232.2L126.3 232.7L120.5 236.6L120 243.3L103.3 248.2L103.4 248.4L98.4 253.2L101 260.1L107.9 261.2L110.1 263.5L115.7 259.4L123.8 258.7L116.2 261.6L115.5 269.1L112.1 270.5L118.7 272.9L124.1 278.6L115.4 287.8L115.8 292.8L127.5 306.5L129.9 314.4L139 322L144.3 323.2L146.2 327.2L152.8 328.5L158.1 332.8L158.9 329.7L161.7 330.1L162 330L171.4 326.3L169.8 329.6L177.1 329.3L179.7 331.3L190 326.2L187.2 324.1L187.4 315.8L182.1 295.6L177.5 291L174.8 284.6L188.7 283.6L192.7 278.4L199 277.5L209.9 277.2L212.4 279.9L220 273.1L220 273.1L226.4 255.9L228.3 245.4L229.1 242.7L236 245.6L235.4 241.9L238.5 242.3L247.2 237.2L247.8 233.2L251.4 232.1L258.4 220.2L258.1 214.1L256 211.5L258.3 209.2L258.8 207.1L256.4 202.9L252.8 202L249.3 198.1L246.1 199.2L238 193.7L236.1 184.1L233.1 182.5L220.8 189L217.4 188.9L217.3 185.6L213.7 183.9L211.5 177.2Z" />
				<path id="Layer" class="shp0" d="M365.1 146.2L365.9 143.1L363.9 140.3L360.9 139.5L351.9 142.9L349 141L346.8 143.4L339.1 142.3L326.8 135.1L324.3 137L314 134.5L306.9 136.5L300.6 135.2L298.9 131.6L298.9 131.6L294.4 142.3L290.1 142.3L287.5 145.1L289.4 151.7L289.4 151.7L289.4 151.7L293.6 159L294.1 171.1L301.1 177.3L302.6 183.5L305 186L308.5 185.2L311.7 197.1L319.5 196.3L321.5 193.1L323.3 196L326.4 194.1L330.6 194.8L331.4 198.2L336 203L335.3 206.1L332.5 207.9L342.7 208.6L355.3 205.5L355.4 205.6L359.6 199.6L359.9 193.1L377.2 189.7L376.7 180L380.1 179.2L383.4 173.6L380.5 171.9L376.6 162.4L379.5 160L380 157.7L380 157.6L369.5 150.9L365.1 146.2Z" />
				<path id="Layer" class="shp0" d="M57.3 160.5L53.5 161L48.1 157.6L44.9 158.4L44.2 162.2L41.7 159.1L39.9 162.8L39.8 155.5L23.6 160.3L21.9 157.4L10.5 163.5L13.4 165L4 164.1L1.9 166.7L0.3 176.9L2.3 179.4L5.4 178.2L8.4 179.5L22 175.4L17.9 177.4L17.3 181.2L24 179.6L23.5 182.8L26.7 184.2L23.3 184.9L30.3 187.9L23.7 186.3L22.2 183.5L18 184.8L11.4 183.5L9.5 180.7L7.8 184.9L10.5 190.7L12.5 187.6L15.6 187.9L21.7 191.4L22.7 195L20.9 197.8L18.2 196.4L4 197.8L2.3 200.5L13 204.5L17.2 211.5L16 217.7L24.1 218.5L28.3 213.8L28.3 213.2L27.4 210L28.6 209.8L28.9 206.4L30.6 209.5L28.6 209.8L28.3 213.3L31.6 215.5L36.8 213.6L42.1 220.3L45.2 219.6L45.2 216.4L45.7 219.6L45.7 219.6L48.6 218.5L47.9 221.7L51.1 222.5L55.3 220.7L55.6 217.3L56.4 226L59.2 227.7L62.3 226.2L61.7 219.6L62.4 223L65.8 223.6L63.3 226.1L65 229L69.1 230.7L72.1 229.4L69.4 230.8L69.7 233.9L72.1 237.1L71.4 240.4L72.2 240.6L75.3 238L78.9 237.1L81.6 239.1L80.2 232.5L83.7 238L85.4 235.2L89.6 235.9L91.9 238.5L89.6 241.3L82.7 240.4L88 244.6L101.9 243.5L105 245.3L101.6 245.4L103.2 248.1L103.3 248.2L120 243.3L120.5 236.6L126.3 232.7L141.1 232.2L142.9 229.1L153 224.7L160.7 228.6L161.1 226.3L165.2 216.6L171.3 214.1L169.2 194.6L170.9 192L171 178.5L171 178.4L164.8 175.8L156.9 181.2L153.9 180.1L148.6 169.5L148.5 169.3L136.3 169.4L136.6 163L133 163.9L128.5 168.1L131.3 174.4L128.8 172.4L126.8 167.4L123.6 167.4L123.6 169.4L119 169.9L117.9 166.4L114.4 168L113.2 165L109.3 165.4L97.3 175.4L96.2 171.3L91.7 168.3L91.6 164.8L86.5 156L83.2 155.4L83.9 152.1L80.5 152.5L78.6 155.9L80.1 148.4L74.9 152L74.2 148.1L64.3 152.2L62.6 149.4L57.5 153.5L57.3 160.5Z" />
				<path id="Layer" class="shp0" d="M174.8 284.6L177.5 291L182.1 295.6L187.4 315.8L187.2 324.1L190 326.2L179.7 331.3L177.1 329.3L169.8 329.6L171.4 326.3L162 330L162.1 330.2L157 341L160.3 342L164.9 351L161.8 351.5L163.6 357.5L160.3 364L154.9 367.6L156.3 372.4L165.2 377.9L176.9 390.6L179.2 398.6L179.2 398.7L185.2 397.9L186 401.1L193.1 403L193.8 409.6L200.7 414.2L211.2 415.4L213.4 409.9L213.5 409.3L215.9 407.1L222 406.2L226.6 399.8L227.3 393.4L236.3 386.8L238.6 380.9L244.9 373.9L248.8 369.7L251.8 369.1L256.4 360L259.3 358.8L259.9 355.3L254.6 351.2L254.8 341.6L258.2 336L264.5 333L265.9 329.6L269.7 330.6L271.1 327.8L272.1 328.3L273.7 325L270.9 323.6L268.1 317.5L264.8 317.5L259.5 312.7L260.4 306.2L250.2 291.5L249.9 288L243.9 284.7L245.5 288L234.2 288.5L231.1 286.8L229.7 280L226.4 280.3L225.9 276.8L220 273.1L212.4 279.9L209.9 277.2L199 277.5L192.7 278.4L188.7 283.6L174.8 284.6Z" />
				<path id="Layer" fill-rule="evenodd" class="shp0" d="M174.7 397.1L177.5 405.7L179.9 402.1L179.2 398.8L179.2 398.7L185.2 397.9L186 401.1L193.1 403L193.8 409.6L200.7 414.2L211.2 415.4L213.4 409.9L213.5 409.3L215.9 407.1L222 406.2L226.6 399.8L227.3 393.4L236.3 386.8L238.6 380.9L244.9 373.9C247.2 375.1 249.6 376.3 251.9 377.4L251.9 382.6L262.5 381.4L270.6 387.7L268.4 390.8L274.8 393.2L278 398.6L273.9 403.8L275.8 407L273.4 409.1L276.2 410.7L276.4 414.2L280 414.8L283.9 422.7L283.2 428.4L281.6 434.3L276.5 437.9L277.2 441.9L270.6 445.9L265.2 453.1L261.4 456.6L264.4 466.7L255.9 469L255.9 472.2L258.7 473.8L253.8 480L255.2 483.1L252.1 482.8L248 488.2L245 489.6L235.4 488.5L229.8 491.6L220.4 491L218.9 493.7L214.6 493L214.3 496.3L211.5 497.8L210.8 494.4L200.2 497.4L200.8 504.6L196.1 517L197.9 520L205.2 520.4L208.1 527L206.4 530L209.7 530.1L210.2 538.2L207.2 539.9L208.1 543.3L199.1 553.6L199.5 557L195.8 557.8L194 560.9L192.7 570.8L192.7 570.9L186.4 574.2L183.8 572.6L181.1 574.4L172.3 567.3L169.4 562L162.4 562.4L151.5 558.2L145 554.6L144.7 550.9L141.3 551.9L140.8 555.9L136.4 554.9L135 551.7L138 549.1L140.1 542.4L138.5 539.3L131.1 537.8L128.6 540.2L128 536.6L121.5 533.6L128.6 528.4L133.8 521.2L138 513.3L150.4 457.1L150.3 451.8L153.9 444L161 445.1L160.8 441.9L155.8 436.1L151.3 444.8L158.3 388.6L161.6 382.1L162.6 385.2L174.7 397.1ZM204.9 539.9L202.5 541.2L205 543L204.9 539.9Z" />
				<path id="Layer" class="shp0" d="M324.8 326.1L319.5 325.9L316.3 326.8L301.6 323.8L299.4 326.6L286.6 327.7L283.4 331L281.4 328.3L274.9 329.6L272.1 328.3L271.1 327.8L269.7 330.6L265.9 329.6L264.5 333L258.2 336L254.8 341.6L254.6 351.2L259.9 355.3L259.3 358.8L256.4 360L251.8 369.1L248.8 369.7L244.9 373.9C247.2 375.1 249.6 376.3 251.9 377.4L251.9 382.6L262.5 381.4L270.6 387.7L268.4 390.8L274.8 393.2L278 398.6L273.9 403.8L275.8 407L273.4 409.1L276.2 410.7L276.4 414.2L280 414.8L283.9 422.7L293 421.9L300.7 428.7L306.5 425.8L314.2 425.9L317.8 423.7L316 420.1L319.5 418.7L319.8 414.9L322.5 412.7L320.4 410.3L328.9 399.6L329.7 395.7L336.6 397.9L334.4 382.2L336.4 379.6L335.1 373.3L330 367L340.6 357.5L338 349.9L338.5 345.3L334.4 335.9L326.2 330.5L324.8 326.1Z" />
				<path id="Layer" class="shp0" d="M283.9 422.7L283.2 428.4L281.6 434.3L276.5 437.9L277.2 441.9L270.6 445.9L265.2 453.1L261.4 456.6L264.4 466.7L255.9 469L255.9 472.2L258.7 473.8L253.8 480L255.2 483.1L252.1 482.8L248 488.2L245 489.6L235.4 488.5L229.8 491.6L220.4 491L218.9 493.7L214.6 493L214.3 496.3L211.5 497.8L210.8 494.4L200.2 497.4L200.8 504.6L196.1 517L197.9 520L205.2 520.4L208.1 527L206.4 530L209.7 530.1L210.2 538.2L207.2 539.9L208.1 543.3L199.1 553.6L199.5 557L195.8 557.8L194 560.9L192.7 570.8L193 570.8L205.7 582L219.5 580.1L222.3 582.5L233.1 582.3L240.4 582.7L242.9 580.3L242.5 572.9L245.3 571.5L252.7 574L264 577L269.4 581.9L276.6 581.4L283 589.8L284.2 586.6L287.9 586.4L299.5 591.9L299.7 591.9L309 588.9L310.4 586L318.8 585.8L313.4 579.4L309.7 580.8L305.9 579.2L305 572.6L308.5 572L309.9 568.7L307.1 565.9L309.6 563.3L309.4 559.9L307.1 554L297.3 549.7L294.7 543.5L304.1 532.2L305.7 535.2L311.6 533.2L312 532.2L312.3 532.7L314.2 535L321.2 535.9L322.5 532.2L325.7 531.7L339.1 533.3L342.8 530.9L343.8 527.7L343 516.8L349.9 519.2L357.6 514.3L363.8 514.5L364 504.6L371 506.1L374.4 500.1L378.6 499L378.2 497.3L383.1 491.5L373.7 486.7L376.7 485.5L379.2 481.2L368.5 476.1L366.7 473.4L367.4 463.6L364.1 453.8L359.4 448.7L359.4 448.7L356.4 442.9L357 439.6L354.2 437.8L352.8 433.1L347.1 428.5L341.8 433.3L338.3 443.5L334 449L326.9 447.2L321.1 450.9L317.5 445.2L319.4 438.8L315.1 432.1L314.2 425.9L306.5 425.8L300.7 428.7L293 421.9L283.9 422.7Z" />
				<path id="Layer" class="shp0" d="M145.8 335.8L150.9 340.4L154.1 339L148.1 335.1L145.8 335.8Z" />
				<path id="Layer" class="shp0" d="M150.3 349.4L148.4 352.5L155.6 365L157.1 361.5L156 353.2L150.3 349.4Z" />
				<path id="Layer" class="shp0" d="M68.5 251.7L65.3 252.1L66.2 255.8L69.9 256.9L74.2 255.6L68.5 251.7Z" />
				<path id="Layer" class="shp0" d="M529.4 596.2L529.7 600.1L525.3 605.7L524.6 609L527.6 607.9L531.9 612.6L526 616.8L527.3 622.9L536.1 627.9L533.1 629.8L529.8 639.1L537.9 636.3L539 642.7L536 650.7L546.6 652.7L541.1 656.5L540.9 659.8L546.3 664.8L558.8 668.5L560.2 671.7L563.7 673.1L570.2 656.5L566.5 656.2L569.5 654L571.8 647.9L571 638.2L571 631.2L577.1 617.9L572.8 588.6L568.3 582.3L568.9 570.4L566.9 560.2L563.7 559L561 561.2L561.6 580.8L551.9 579.3L548 584.8L535.9 589.6L535 592.7L531.8 593.1L529.4 596.2Z" />
				<path id="Layer" class="shp1" d="M179.2 398.7L179.2 398.8L179.9 402.1L177.5 405.7L174.7 397.1L162.6 385.2L161.6 382.1L158.3 388.6L151.3 444.8L155.8 436.1L160.8 441.9L161 445.1L153.9 444L150.3 451.8L150.4 457.1L138 513.3L133.8 521.2L128.6 528.4L121.5 533.6L128 536.6L128.6 540.2L131.1 537.8L138.5 539.3L140.1 542.4L138 549.1L135 551.7L136.4 554.9L140.8 555.9L141.3 551.9L144.7 550.9L145 554.6L151.5 558.2L162.4 562.4L169.4 562L172.3 567.3L181.1 574.4L183.8 572.6L186.4 574.2L192.7 570.9L193 570.8L205.7 582L219.5 580.1L222.3 582.5L233.1 582.3L240.4 582.7L242.9 580.3L242.5 572.9L245.3 571.5L252.7 574L264 577L269.4 581.9L276.6 581.4L283 589.8L284.2 586.6L287.9 586.4L299.5 591.9L299.8 592.1L297.7 597.5L307.5 600.5L310.1 606.8L313.8 607.1L318.8 602.6L322.3 602.4L333 604.8L338.1 608.8L345.1 608.2L345.1 605L354.2 600.2L361.3 599L370.9 601.6L364.5 593.5L364 573.7L364.5 562.6L370.9 550.7L373.7 547.7L380 543.1L387.6 543.1L395 534.9L407.3 525.9L416.7 523.3L420 528.9L422.9 529.5L423.4 529.7L439.7 530.2L441.9 533L441.4 536.1L445.5 537L456.3 535.8L453.9 533.2L455.4 530.3L458.4 530.7L463.5 536.7L478.4 535L482.8 544.9L493.7 547.7L496.8 546.7L503.9 550.8L503.5 554L513.5 551.1L520.1 552.9L521.5 556.1L523.8 549.8L532.1 551.2L532.1 548L538.5 546.7L541.5 543.9L545.8 544.2L548.3 538.2L544.3 536.3L551.1 527.2L557.3 526.4L562.1 517.8L568.6 514.8L569.8 510.1L586 501.3L586.5 493.1L593.5 483.5L595.8 478.5L591.3 472.7L577.9 477.4L567.6 471.9L560.6 470.5L553.5 462L555.6 456.5L551.3 450.4L553.8 448.4L555.3 441.6L557.5 439L561.5 439.1L557.3 428.6L550.5 428.3L544.6 424.6L543.6 417.2L540.6 417.1L537.9 411.1L559.6 401.8L561.9 397.7L560.5 394.8L563.7 389L555.5 383.2L553 377.1L553.8 373.6L547.5 371L544.3 368L543.7 364.4L553.2 355.2L554.3 351.7L550.5 346.6L541.7 338.3L544.4 331.3L540.2 325.3L540.6 322.1L537 321.3L527.5 322L521.9 326.7L518 325L514.9 331.6L517.5 335.1L509.6 341L501.8 342.1L502.4 336.4L508.8 332.4L510.1 324.6L506 322.2L510 308.7L523.1 296.6L522.3 285.7L531.9 279L545 262.8L544.8 259.6L547.4 257.2L542.6 253.2L543.6 249.9L547.9 245.1L551.9 244.6L552.3 244.5L555.5 245.3L554.6 248.6L563.1 248.6L566.2 247.5L566.8 244.1L570 243.9L570.1 240.4L572.7 238.2L569.4 229.5L572.5 212.2L570.4 200.6L577 184.9L578.6 167.4L590.4 152L594.8 140L585.3 136.6L568.7 136L568.4 135.8L559.4 127.7L552.2 132.4L544.5 130.9L541.6 132.4L539.1 128L535.7 126.4L532.6 128.1L532.3 131.4L529.1 130.6L520.1 120.4L518.3 113.9L514.9 111.5L502.5 108.6L497.5 112.5L494.4 112.7L488.3 109.9L484.6 106.7L476.9 106.7L475.5 109.9L469.2 110.6L465.4 102.5L464.9 102.5" />
				<path id="Layer" class="shp1" d="M464.7 102.6L461.8 102.9L461.8 99.3L455 97.6L447.4 91L440.8 91.1L441.8 83.9L438.6 77.4L438.6 72.8L441.6 67.1L438.6 65.3L433.9 70.2L432 77.4L422.2 81.8L416.2 79.9L412.7 80.5L412.3 80.4L408.5 79.2L412.2 72.1L408.8 66.2L411.2 59L408 59.7L403.4 54.1L396.7 55.3L390.5 53.9L388 56.1L385.6 45.9L379.5 44.5L378.2 41.4L375 43.9L371.5 42.6L368 33.1L368.5 29.8L364.1 24.8L357.6 25.4L351.3 29.7L348 28.2L344.8 22.4L341.1 22.4L339.6 19.4L340.8 12.9L338 6.2L334.8 4.3L316.2 8.9L301.2 13.7L294.7 19.3L294.6 39.5L297.9 43.4L294.8 41.4L294 48.1L294.4 52.3L297.2 54.2" />
				<path id="Layer" class="shp1" d="M412.3 80.4L412.3 80.6L413.2 87.1L411.6 91L413.2 94.5L407.6 102.5L404.4 102.9L404.8 118.9L403.7 122.1L397.7 120L388.9 124.6L387.4 127.5L391 136.5L384.8 139L386.7 141.7L385.7 144.9L388.6 146.2L380 157.7" />
				<path id="Layer" class="shp1" d="M408.5 79.2L390.4 74.4L384.5 76.4L381.9 74.4L379 76.9L364.8 77.6L361.1 74.7L351.6 76.7L350.6 73.2L348 75L344.9 69.9L343.9 73L334.4 69.1L331.6 72.6L329.7 69L332.6 62.7" />
				<path id="Layer" class="shp1" d="M492.3 218.3L490.8 215.5L487.8 216.7L487.5 213.1L481.4 208L483.4 198.4L469 187.7L471.7 184.9L452.8 173.3L448.9 167.5L448.4 163L444.7 157.8L446 151.2L449.4 150.1L450.2 145.6L447.2 144.1L448.4 139.6L445.9 129.4L450.6 125.4L449.2 122.5L452.7 116.9L451.7 107L453.9 104.8L460.2 107.1L462.6 104.1L464.7 102.6L464.9 102.5" />
				<path id="Layer" class="shp1" d="M377.2 189.7L381.4 191.3L386.3 197.5L389.1 206.9L391.3 204.4L395.4 209L401 221.3L415.2 219.5L418.5 221L420.9 218.8L427.7 217.8L433 213.4L441.3 214.7L442 217.8L444.9 218.9L444.5 222.2L447.8 222.5L449.7 225L451 228.4L447.7 231.1L450.3 236.6L460.7 238.8L464 240.6L464 243.7L469.5 241.6L469.6 241.5" />
				<path id="Layer" class="shp1" d="M492.3 218.3L492.3 218.4L492.5 220L489.9 223.6L486.8 223.3L484.4 226L484.1 235.3L480.6 236.4L478.1 234.4L470.7 238.8L469.6 241.5" />
				<path id="Layer" class="shp1" d="M568.4 135.8L568.3 135.9L566.6 140.9L565 144L555 144.2L544.8 139.1L543.8 135.9L538.4 148.1L544.5 150.8L542.6 153.6L545.2 155.4L546.8 152.5L550 152.9L554.9 156.8L551.6 171.7L549.1 173.6L545.1 173.3L547.3 174.8L545.8 186L551.6 188.6L550.5 189.6L545.8 204.7L540.4 213.6L540.4 220.5L537.3 223.2" />
				<path id="Layer" class="shp1" d="M537.3 223.2L537.3 223.2L536.3 223.9L526.9 216.4L521.1 219L515.5 214.9L509.3 216.6L501.3 211.9L492.3 218.3" />
				<path id="Layer" class="shp1" d="M537.3 223.2L545.8 228.8L546.3 238.8L549.5 238.8L551.9 244.6" />
				<path id="Layer" class="shp1" d="M469.6 321.6L474.4 330.2L477.6 330.3L477.7 333.7L480.9 333.4L485.4 328.6L489.2 330.4L489.7 333.5L494.1 333.3L500.2 329.6L506 322.2" />
				<path id="Layer" class="shp1" d="M469.6 241.5L472.4 239.6L474.8 243.1L474.9 246.7L469.6 251.2L472.6 252.9L477.1 262L475.7 263.4L473.7 272.7L466.7 280.2L465.5 284.9L466 288.3L475.3 293.1L469.6 297.3L472.4 299.1L474.9 308.9L471.7 314.5L472.6 320.3L469.5 321.6L469.6 321.6" />
				<path id="Layer" class="shp1" d="M402.4 335.4L406.5 330.1L407.1 323.9L405.2 321.3L396.4 318L388.9 302.9L382.2 309.5L377.3 305.5L374.2 307.3L367 307.2L360.5 300.1" />
				<path id="Layer" class="shp1" d="M402.4 335.4L398 336.8L397.4 340.2L399.1 354.1L393 359.4L395.7 362.6L393.4 369.6L398.7 378.3L403.8 382.5L406.8 390.8L403.6 398.9L406.6 397.9L409.2 400.1L412.3 399.8L419.3 396.4L426.1 398.9L426.8 405.1L429.8 404L432.3 406.6L431.2 411.2L431.2 414.7L428.3 413.3L426.7 419.2L423.7 421.7L424.5 425L420.6 425.4L417 432L410.3 434.1L402.7 441.3" />
				<path id="Layer" class="shp1" d="M469.6 321.6L464.1 318L458 319.4L451.4 317.7L444.8 341.2L438.4 332.6L436.7 335.2L433.9 333.3L431.4 335.4L428.9 333.3L426.2 335.5L425.9 338.8L419.5 343.2L417.2 340.7L408.2 342.4L402.4 338.8L402.4 335.4" />
				<path id="Layer" class="shp1" d="M402.7 441.3L392.6 432.7L389.4 432.4L389.1 435.6L382 434.2L380.3 427.8L377.8 425.9L369 433.5L367.1 430.8L359.4 448.7" />
				<path id="Layer" class="shp1" d="M402.7 441.3L405 451.5L412.9 467.5L421.6 473.1L429.5 468.1L429.6 471.7L432.5 469.1L435.6 469.2L442.3 473" />
				<path id="Layer" class="shp1" d="M442.3 473L442.3 468.9L448.8 469.6L452.8 474.4L462.6 470L465.2 471.6L468.1 469.2L468.7 475.6L479.1 476.6L479.2 479.7L485 482.3L489.8 477L493.6 476.7L493.8 471.3L482.5 465L480.9 462L484.5 456.3L489.2 457.9L492 455.1L488.6 452.5L491.4 444.9L497.9 444.6L498.3 440.8L499.3 437.4L505.5 436L506.5 432.8L520.6 428.6L524.1 429.8L524.6 423.2L519.6 419.8L517.6 415.1L519.4 410.7L528.1 414.7L530.4 412.5L537.9 411.1" />
				<path id="Layer" class="shp1" d="M455 464L458 461.5L463 464.6L460.4 468.6L455.8 470L453.6 467.5L455 464" />
				<path id="Layer" class="shp1" d="M442.3 473L445.2 478L445.5 484.1L452.6 491.3L443.1 501.5L440.9 513.4L437.3 512.5L432.5 517.8L433.7 520.8L427.2 522.7L423 529.5L422.9 529.5" />
				<path id="Layer" class="shp1" d="M332.6 62.7L319.2 65.4L311.3 59L310.2 55.6L297.2 54.2" />
				<path id="Layer" class="shp1" d="M297.2 54.2L292.9 55.8L292.5 59.1L295.9 65.3L292.8 63.7L285.3 74L285.1 74.1" />
				<path id="Layer" class="shp1" d="M298.9 131.6L303.3 128.9L299.4 119.4L300.8 110.4L299.3 100.6L302.8 95.3L298.9 85.9L285.2 74.1L285.1 74.1L285 74.1" />
				<path id="Layer" class="shp1" d="M285 74.1L273.2 82.5L248.3 88.6L232.3 97.3L225.9 111.4L227.8 113.9L237.8 116.2L236 116.9L235.5 117.1L228.3 118.7L222.8 123.5L212 126.5L202.5 122.5L188.5 121L177.8 117.2L171.8 119.9L164.6 108L167.3 99.2L166.2 96.1L158.9 95.4L156.1 97.4L148.7 97.9L136 92.7L135.8 95.9L139.4 97.9L140 103.4L137.9 105.6L140.8 117.1L150.3 127.4L148.8 138.7L151 141.8L150.4 148.5L147.9 154.9L152.6 165.5L155.5 166.9L158.3 165.1L157.2 168.5L149 169.3L148.5 169.3L136.3 169.4L136.6 163L133 163.9L128.5 168.1L131.3 174.4L128.8 172.4L126.8 167.4L123.6 167.4L123.6 169.4L119 169.9L117.9 166.4L114.4 168L113.2 165L109.3 165.4L97.3 175.4L96.2 171.3L91.7 168.3L91.6 164.8L86.5 156L83.2 155.4L83.9 152.1L80.5 152.5L78.6 155.9L80.1 148.4L74.9 152L74.2 148.1L64.3 152.2L62.6 149.4L57.5 153.5L57.3 160.5L53.5 161L48.1 157.6L44.9 158.4L44.2 162.2L41.7 159.1L39.9 162.8L39.8 155.5L23.6 160.3L21.9 157.4L10.5 163.5L13.4 165L4 164.1L1.9 166.7L0.3 176.9L2.3 179.4L5.4 178.2L8.4 179.5L22 175.4L17.9 177.4L17.3 181.2L24 179.6L23.5 182.8L26.7 184.2L23.3 184.9L30.3 187.9L23.7 186.3L22.2 183.5L18 184.8L11.4 183.5L9.5 180.7L7.8 184.9L10.5 190.7L12.5 187.6L15.6 187.9L21.7 191.4L22.7 195L20.9 197.8L18.2 196.4L4 197.8L2.3 200.5L13 204.5L17.2 211.5L16 217.7L24.1 218.5L28.3 213.8L28.3 213.3" />
				<path id="Layer" class="shp1" d="M235.5 117.1L235.8 126.8L239 126.8L236.4 129.1L239.6 139.8L238 143L240.6 147.7L239.9 150.1L240 153.7L247.1 154.4L255.9 165L254 167.5L257.8 169.9" />
				<path id="Layer" class="shp1" d="M257.8 169.9L260.6 167L267.2 165.9L273.2 162.3L276.4 164L283.1 162.5L282.8 159.4L289.4 151.7" />
				<path id="Layer" class="shp1" d="M257.8 169.9L257.9 173.5L263.2 178.5L263.6 188.6L255.3 194.5L256.4 202.8L256.4 202.9" />
				<path id="Layer" class="shp1" d="M256.4 202.9L252.8 202L249.3 198.1L246.1 199.2L238 193.7L236.1 184.1L233.1 182.5L220.8 189L217.4 188.9L217.3 185.6L213.7 183.9L211.5 177.2L208.4 176.9L207.7 179.9L197.5 179.9L189.9 183.7L187.1 181.8L184.4 183.5L180.6 179.3L171 178.5" />
				<path id="Layer" class="shp1" d="M220 273.1L220 273.1L226.4 255.9L228.3 245.4L229.1 242.7L236 245.6L235.4 241.9L238.5 242.3L247.2 237.2L247.8 233.2L251.4 232.1L258.4 220.2L258.1 214.1L256 211.5L258.3 209.2L258.8 207.1L256.4 202.9" />
				<path id="Layer" class="shp1" d="M377.2 189.7L376.7 180L380.1 179.2L383.4 173.6L380.5 171.9L376.6 162.4L379.5 160L380 157.7L380 157.6L369.5 150.9L365.1 146.2L365.9 143.1L363.9 140.3L360.9 139.5L351.9 142.9L349 141L346.8 143.4L339.1 142.3L326.8 135.1L324.3 137L314 134.5L306.9 136.5L300.6 135.2L298.9 131.6" />
				<path id="Layer" class="shp1" d="M289.4 151.7L289.4 151.7L287.5 145.1L290.1 142.3L294.4 142.3L298.9 131.6L298.9 131.6" />
				<path id="Layer" class="shp1" d="M355.4 205.6L355.3 205.5L342.7 208.6L332.5 207.9L335.3 206.1L336 203L331.4 198.2L330.6 194.8L326.4 194.1L323.3 196L321.5 193.1L319.5 196.3L311.7 197.1L308.5 185.2L305 186L302.6 183.5L301.1 177.3L294.1 171.1L293.6 159L289.4 151.7L289.4 151.7L289.4 151.7" />
				<path id="Layer" class="shp1" d="M355.4 205.6L359.6 199.6L359.9 193.1L377.2 189.7" />
				<path id="Layer" class="shp1" d="M360.5 300.1L362 290.1L362.3 283.6L359.8 281.3L359.5 274.7L356 266.2L353 263.9L354.9 257.3L352.7 250L354.3 247.3L357.5 246.5L354.9 238.8L351.6 235.7L357.6 231.8L359.3 229.3L358.2 226L363.2 220.5L362.8 214.1L355.4 205.6" />
				<path id="Layer" class="shp1" d="M28.6 209.8L27.4 210L28.3 213.2L28.3 213.3" />
				<path id="Layer" class="shp1" d="M28.3 213.3L28.6 209.8" />
				<path id="Layer" class="shp1" d="M28.3 213.3L31.6 215.5L36.8 213.6L42.1 220.3L45.2 219.6L45.2 216.4L45.7 219.6L45.7 219.6L48.6 218.5L47.9 221.7L51.1 222.5L55.3 220.7L55.6 217.3L56.4 226L59.2 227.7L62.3 226.2L61.7 219.6L62.4 223L65.8 223.6L63.3 226.1L65 229L69.1 230.7L72.1 229.4L69.4 230.8L69.7 233.9L72.1 237.1L71.4 240.4L71.2 241.2L73.6 243.8L72.2 240.6L75.3 238L78.9 237.1L81.6 239.1L80.2 232.5L83.7 238L85.4 235.2L89.6 235.9L91.9 238.5L89.6 241.3L82.7 240.4L88 244.6L101.9 243.5L105 245.3L101.6 245.4L103.2 248.1" />
				<path id="Layer" class="shp1" d="M28.6 209.8L30.6 209.5L28.9 206.4L28.6 209.8" />
				<path id="Layer" class="shp1" d="M171 178.5L171 178.4L164.8 175.8L156.9 181.2L153.9 180.1L148.6 169.5L148.5 169.3" />
				<path id="Layer" class="shp1" d="M103.2 248.1L103.2 248.2L103.3 248.2L120 243.3L120.5 236.6L126.3 232.7L141.1 232.2L142.9 229.1L153 224.7L160.7 228.6L161.1 226.3L165.2 216.6L171.3 214.1L169.2 194.6L170.9 192L171 178.5" />
				<path id="Layer" class="shp1" d="M220 273.1L212.4 279.9L209.9 277.2L199 277.5L192.7 278.4L188.7 283.6L174.8 284.6L177.5 291L182.1 295.6L187.4 315.8L187.2 324.1L190 326.2L179.7 331.3L177.1 329.3L169.8 329.6L171.4 326.3L162 330L161.7 330.1" />
				<path id="Layer" class="shp1" d="M103.2 248.2L103.4 248.4L98.4 253.2L101 260.1L107.9 261.2L110.1 263.5L115.7 259.4L123.8 258.7L116.2 261.6L115.5 269.1L112.1 270.5L118.7 272.9L124.1 278.6L115.4 287.8L115.8 292.8L127.5 306.5L129.9 314.4L139 322L144.3 323.2L146.2 327.2L152.8 328.5L158.1 332.8L158.9 329.7L161.7 330.1L162.1 330.2L157 341L160.3 342L164.9 351L161.8 351.5L163.6 357.5L160.3 364L154.9 367.6L156.3 372.4L165.2 377.9L176.9 390.6L179.2 398.6" />
				<path id="Layer" class="shp1" d="M108.8 280.4L115.6 287L115.4 283.5L112 281.4L110.9 277.9L108.8 280.4" />
				<path id="Layer" class="shp1" d="M150.9 340.4L154.1 339L148.1 335.1L145.8 335.8L150.9 340.4" />
				<path id="Layer" class="shp1" d="M143 333.3L144.3 336.4L145.8 335.9L143 333.3" />
				<path id="Layer" class="shp1" d="M148.4 352.5L155.6 365L157.1 361.5L156 353.2L150.3 349.4L148.4 352.5" />
				<path id="Layer" class="shp1" d="M65.3 252.1L66.2 255.8L69.9 256.9L74.2 255.6L68.5 251.7L65.3 252.1" />
				<path id="Layer" class="shp1" d="M244.9 373.9L238.6 380.9L236.3 386.8L227.3 393.4L226.6 399.8L222 406.2L215.9 407.1L213.5 409.3L213.4 409.9L211.2 415.4L200.7 414.2L193.8 409.6L193.1 403L186 401.1L185.2 397.9L179.2 398.7L179.2 398.6" />
				<path id="Layer" class="shp1" d="M324.8 326.1L319.5 325.9L316.3 326.8L301.6 323.8L299.4 326.6L286.6 327.7L283.4 331L281.4 328.3L274.9 329.6L272.1 328.3" />
				<path id="Layer" class="shp1" d="M324.8 326.1L328.9 319.4L338.6 318.3L340.5 315.6L338.6 309.6L341.2 307.5L350.6 304.3L356 300.1L360.5 300.1" />
				<path id="Layer" class="shp1" d="M314.2 425.9L317.8 423.7L316 420.1L319.5 418.7L319.8 414.9L322.5 412.7L320.4 410.3L328.9 399.6L329.7 395.7L336.6 397.9L334.4 382.2L336.4 379.6L335.1 373.3L330 367L340.6 357.5L338 349.9L338.5 345.3L334.4 335.9L326.2 330.5L324.8 326.1" />
				<path id="Layer" class="shp1" d="M272.1 328.3L273.7 325L270.9 323.6L268.1 317.5L264.8 317.5L259.5 312.7L260.4 306.2L250.2 291.5L249.9 288L243.9 284.7L245.5 288L234.2 288.5L231.1 286.8L229.7 280L226.4 280.3L225.9 276.8L220 273.1" />
				<path id="Layer" class="shp1" d="M272.1 328.3L271.1 327.8L269.7 330.6L265.9 329.6L264.5 333L258.2 336L254.8 341.6L254.6 351.2L259.9 355.3L259.3 358.8L256.4 360L251.8 369.1L248.8 369.7L244.9 373.9" />
				<path id="Layer" class="shp1" d="M244.9 373.9C247.2 375.1 249.6 376.3 251.9 377.4L251.9 382.6L262.5 381.4L270.6 387.7L268.4 390.8L274.8 393.2L278 398.6L273.9 403.8L275.8 407L273.4 409.1L276.2 410.7L276.4 414.2L280 414.8L283.9 422.7" />
				<path id="Layer" class="shp1" d="M283.9 422.7L283.2 428.4L281.6 434.3L276.5 437.9L277.2 441.9L270.6 445.9L265.2 453.1L261.4 456.6L264.4 466.7L255.9 469L255.9 472.2L258.7 473.8L253.8 480L255.2 483.1L252.1 482.8L248 488.2L245 489.6L235.4 488.5L229.8 491.6L220.4 491L218.9 493.7L214.6 493L214.3 496.3L211.5 497.8L210.8 494.4L200.2 497.4L200.8 504.6L196.1 517L197.9 520L205.2 520.4L208.1 527L206.4 530L209.7 530.1L210.2 538.2L207.2 539.9L208.1 543.3L199.1 553.6L199.5 557L195.8 557.8L194 560.9L192.7 570.8L192.7 570.9" />
				<path id="Layer" class="shp1" d="M359.4 448.7L359.4 448.7L356.4 442.9L357 439.6L354.2 437.8L352.8 433.1L347.1 428.5L341.8 433.3L338.3 443.5L334 449L326.9 447.2L321.1 450.9L317.5 445.2L319.4 438.8L315.1 432.1L314.2 425.9" />
				<path id="Layer" class="shp1" d="M283.9 422.7L293 421.9L300.7 428.7L306.5 425.8L314.2 425.9" />
				<path id="Layer" class="shp1" d="M299.5 591.9L299.7 591.9L309 588.9L310.4 586L318.8 585.8L313.4 579.4L309.7 580.8L305.9 579.2L305 572.6L308.5 572L309.9 568.7L307.1 565.9L309.6 563.3L309.4 559.9L307.1 554L297.3 549.7L294.7 543.5L304.1 532.2L305.7 535.2L311.6 533.2L312 532.2L312.3 532.7L314.2 535L321.2 535.9L322.5 532.2L325.7 531.7L339.1 533.3L342.8 530.9L343.8 527.7L343 516.8L349.9 519.2L357.6 514.3L363.8 514.5L364 504.6L371 506.1L374.4 500.1L378.6 499L378.2 497.3L383.1 491.5L373.7 486.7L376.7 485.5L379.2 481.2L368.5 476.1L366.7 473.4L367.4 463.6L364.1 453.8L359.4 448.7" />
				<path id="Layer" class="shp1" d="M202.5 541.2L204.9 539.9L205 543L202.5 541.2" />
				<path id="Layer" class="shp1" d="M529.7 600.1L525.3 605.7L524.6 609L527.6 607.9L531.9 612.6L526 616.8L527.3 622.9L536.1 627.9L533.1 629.8L529.8 639.1L537.9 636.3L539 642.7L536 650.7L546.6 652.7L541.1 656.5L540.9 659.8L546.3 664.8L558.8 668.5L560.2 671.7L563.7 673.1L570.2 656.5L566.5 656.2L569.5 654L571.8 647.9L571 638.2L571 631.2L577.1 617.9L572.8 588.6L568.3 582.3L568.9 570.4L566.9 560.2L563.7 559L561 561.2L561.6 580.8L551.9 579.3L548 584.8L535.9 589.6L535 592.7L531.8 593.1L529.4 596.2L529.7 600.1" />
				<path id="Layer" class="shp1" d="M467.3 523.8L469.6 528.4L473.4 526.8L470.9 531.1L467.3 532.3L462.1 527.5L462.7 523.8L467.3 523.8" />
			</g>
		</g>
	</g>
</svg>