<?xml version="1.0" encoding="utf-8"?>
<svg version="1.1" id="Layer_1" xmlns="http://www.w3.org/2000/svg" xmlns:xlink="http://www.w3.org/1999/xlink" x="0px" y="0px"
	 viewBox="0 0 4605.927 5000" enable-background="new 0 0 4605.927 5000" xml:space="preserve">
<g>
	<path d="M2179.938,302.901c-5.776,1.051-8.712,7.188-15.12,7.747c-6.819,0.595-11.116-2.042-9.506-8.23
		c8.351-32.1,10.502-33.75,18.767-37.867c10.086-5.023,15.53-13.273,17.184-24.342c1.779-11.904-10.386,0.152-14.446-7.961
		c-2.358-4.711,4.777-8.393,9.662-10.272c17.763-6.834,11.167-19.182,24.359-38.652c9.152-13.506-4.135-7.793,11.597-37.644
		c13.511-25.637,8.789-29.913,20.573-35.215c8.992-4.045,16.84-11.265,27.201-11.432c7.199-0.116,11.429-4.377,13.356-9.584
		c7.248-19.578,40.756-28.114,62.519-25.981c18.95,1.857,41.334-6.661,54.682-21.21c7.034-7.668,17.943,8.022,25.239-13.873
		l-0.267,0.357c7.13-1.633,7.801,2.634,5.362,5.639c-3.567,4.396-7.445,8.539-11.577,13.19c12.911,5.418,24.881-0.535,36.877,1.257
		c11.355,1.697,23.162,0.365,35.748,0.365c-4.153-12.421-14.004-19.127-23.825-25.305c12.292-7.492,23.676-3.836,35.102,1.645
		c10.759,5.161,9.002-3.145,13.102-16.16c2.71-8.603,5.671-10.191,16.003-9.048c7.104,0.786,9.395,3.536,9.62,11.882
		c0.516,19.168-9.012,21.029-9.173,33.588c1.354,0.839,2.671,2.202,4.196,2.503c5.893,1.161,9.646,7.33,17.471,5.012
		c8.1-2.401,15.478-4.895,21.218-11.203c5.807-6.382,6.716-10.104,11.687-9.108c8.229,1.649-3.564,20.416-5.062,23.122
		c9.157-1.137,17.26-0.904,25.263,2.857c7.05,3.312,23.707,1.332,27.816,2.322c39.948,9.626,45.086-11.328,57.948-10.749
		c15.844,0.713,26.317,4.585,17.83,24.946c-2.787,6.686-6.656,12.364-13.493,15.47c-9.176,4.169-4.052,11.878-1.971,11.53
		c14.611-2.44,24.242,6.008,33.942,14.766c9.256,8.358,11.051,14.004,3.944,28.843c1.074,0.79,1.896,1.794,2.916,2.075
		c4.74,1.307,11.907-0.551,12.653,6.394c0.841,7.824-16.264,7.744-11.551,14.7c4.679,6.907,14.719-7.303,18.495,1.635
		c1.907,4.514,8.098,9.911,0.686,15.285c-5.038,3.652-0.385,9.452,3.523,19.161c19.438,48.291,6.554,22.907,23.989,96.438
		c4.261,17.969,13.736,5.858,30.673,18.024c3.28,2.356,4.475,5.303,1.812,8.907c-2.431,3.29-4.279,7.567-7.519,9.602
		c-13.998,8.789-10.321,25.645-8.167,41.472c1.646,12.092,17.426,0.593,15.287,17.657c-2.592,20.679-16.473,29.806-2.539,69.994
		c7.739,22.32,19.431,39.58,15.104,63.894c-5.05,28.378-25.385,22.49-60.74,25.025c-8.46,0.607-8.896,3.588-8.571,19.407
		c0.801,38.96-31.316,24.489-27.886,51.669c0.365,2.891-0.345,6.031,0.492,8.73c9.98,32.191-12.246,38.517,1.95,58.852
		c13.19,18.896,8.3,46.416-9.131,61.427c-27.82,23.957-35.892,10.167-46.115,22.502c-10.455,12.614-23.915,19.488-39.752,23.899
		c-13.461,3.75-24.824,12.834-35.941,21.48c-4.023,3.129-4.389,8.018-6.194,12.272c-1.296,3.055-4.016,5.505-6.036,8.141
		c1.045,1.248,1.607,2.379,2.52,2.943c176.324,108.878,180.006,271.736,185.425,300.046c10.57,55.228,64.672,54.275,136.823,181.523
		c13.805,24.346,23.806,50.842,28.761,78.792c2.986,16.847,2.953,16.853,16.71,29.345c15.769-7.48,29.955-17.809,44.295-27.786
		c38.283-26.636,47.351-17.853,66.69-34.166c13.959-11.776,44.591-14.613,62.086-14.742c34.95-0.257,40.22-22.667,69.278-37.729
		c6.646-3.445,14.373-6.038,19.398-11.877c5.717-6.644,6.525-13.344,14.714-18.352c48.801-29.841,70.975-70.404,93.89-83.836
		c10.3-6.037,13.883-14.984,13.964-26.378c0.076-10.58-0.467-21.104-2.269-31.476c-7.895-45.456,18.509-52.553,3.165-92.947
		c-5.975-15.73,1.424-34.866,6.922-41.33c23.951-28.16,22.736-45.74,32.19-59.753c5.211-7.724,11.09-14.884,10.586-25.28
		c-0.267-5.5,3.756-9.635,8.638-12.367c65.621-36.717,24.85-13.348,60.283-45.874c6.308-5.79,13.953-8.763,22.536-6.151
		c17.734,5.398,14.609,18.968,17.089,21.771c2.936,0.545,4.08-1.857,5.012-3.649c12.367-23.771,43.055-35.227,61.623-66.627
		c0.588-0.994,1.271-2.172,2.221-2.674c28.469-15.03,34.921-49.767,83.451-25.819c13.053-22.244,19.979-36.178,60.779-22.959
		c5.457,1.768,7.713,6.8,7.997,12.547c0.46,9.326,1.477,18.657-0.014,27.968c-0.807,5.035-0.155,8.769,5.123,11.543
		c27.185,14.285,14.021,54.816,6.501,69.39c-30.074,58.283-38.225,96.158-65.266,127.703c-8.523,9.942-11.354,21.39-11.585,33.931
		c-0.155,8.35,8.037,8.449,10.491,4.752c10.406-15.678,25.543-27.25,36.564-42.357c15.673-21.483,15.556-28.903,38.583-42.132
		c9.687-5.566,19.458-1.442,28.123,2.964c8.567,4.356,12.128,12.602,10.243,22.272c-2.815,14.442-7.035,28.228-17.689,39.343
		c-20.303,21.181-37.046,45.246-54.716,68.558c-3.624,4.782-5.886,10.222-7.472,15.77c-6.291,22.001-20.111,39.37-34.049,56.708
		c-18.83,23.424-63.294,92.529-184.865,161.389c-7.81,4.424-16.323,29.832-29.98,50.868
		c-24.139,37.182-157.67,183.446-182.626,209.676c-18.58,19.528-38.61,37.504-57.521,56.648
		c-7.964,8.061-18.051,12.977-28.252,17.332c-24.528,10.471-27.494,21.898-51.795,38.546
		c-38.701,26.512-16.309,18.722-53.491,44.743c-40.902,28.625-58.159,37.119-71.232,51.054c-3.551,3.785-7.868,7.417-12.558,9.469
		c-21.57,9.436-38.927,25.555-59.499,36.64c-44.448,23.948-65.606,2.513-121.75-32.674c-43.219-27.086-53.986-56.789-86.321-106.352
		c-28.608-43.851-55.467-43.466-65.715-55.976c-10.275,14.041-17.527,34.682-17.589,49.024
		c-0.055,12.836-95.594,257.471-96.428,263.135c-4.392,29.85-30.09,10.321-30.1,32.517c-0.012,27.499-10.243,58.623-23.3,83.545
		c-29.37,56.059-29.653,54.457-36.428,95.73c-3.74,22.782-2.95,44.621-12.859,57.598c-10.617,13.904-2.63,31.425-18.108,64.049
		c7.712,6.882,15.044,13.474,22.432,20.003c14.364,12.693-0.976,11.58,8.766,28.3c6.135,10.528,6.972,20.75,0.201,31.296
		c-0.827,1.288-0.356,3.408-0.505,5.378c6.975,3.523,13.395,1.525,20.207-0.773c14.795-4.99,6.686,14.685,27.089,19.129
		c40.33,8.791,15.918,29.596,44.501,39.161c3.858,1.291,7.895,2.61,11.898,2.78c26.946,1.148,5.191,13.582,34.932,21.125
		c19.399,4.92,37.139,13.861,55.038,22.336c15.051,7.126,27.739,16.827,34.966,32.882c6.158,13.679,18.99,21.956,29.307,32.229
		c22.176,22.083,48.461,38.258,75.282,53.972c61.153,35.827,71.219,71.005,115.743,93.014c15.909,7.864,43.216,26.831,55.41,42.361
		c14.362,18.292,50.067,40.385,95.875,84.571c42.541,41.036,64.644,45.765,94.453,80.656c27.343,32.004,42.852,14.051,38.84,40.765
		c-2.03,13.517,13.07,11.978,53.243,46.502c31.442,27.021,31.24,63.815,33.682,86.975c2.025,19.198-7.55,25.023-15.26,51.547
		c-4.504,15.503-14.299,13.068-17.391,50.672c-1.814,22.078-13.608,31.82-18.615,40.174c2.458,5.142,7.077,3.626,10.905,4.067
		c24.246,2.79,10.414,17.015,32.927,18.797c10.47,0.829,10.767,1.448,12.681,12.558c0.619,3.592,1.413,6.587,4.116,9.271
		c1.504,1.493,2.791,4.214,2.604,6.237c-1.184,12.818,6.336,20.4,15.164,27.851c10.229,8.634,19.7,17.938,34.079,19.521
		c5.365,0.59,10.203,3.618,9.483,10.447c-0.584,5.547-5.407,0.209,87.076,74.37c294.719,236.332,278.198,223.179,284.737,228.001
		c15.869,11.704,10.217-2.944,29.242,13.942c59.332,52.669,47.523,47.677,83.385,57.953c7.166,2.053,14.53,3.056,19.649,10.171
		c3.634,5.051,10.731,4.564,16.36,3.46c24.627-4.834,14.655,19,29.806,17.131c11.2-1.382,13.077,10.439,15.015,14.236
		c19.993,39.178-24.492,40.444-13.336,58.428c1.654,2.665-17.393,22.145-24.312,26.733c-21.35,14.158-20.625-5.051-33.845,8.233
		c-5.119,5.143-78.334,68.252-88.784,79.512c-102.64,110.594-46.707,231.737,56.01,252.244
		c116.279,23.213,181.853,24.232,227.985,26.457c216.256,10.43,314.843-19.679,439.662-90.596
		c48.006-27.271,71.094-47.567,71.094-47.567c16.282-9.805,18.765,7.155,44.121,13.761c21.376,5.567,2.646,50.797-13.129,62.664
		c-3.908,2.94-3.177,6.431,0.502,10.123c3.16,3.171,9.126,3.127,10.144,8.793c-6.754,5.541-14.757-6.86-26.161,2.388
		c-46.674,37.845-107.132,82.11-158.38,100.233c-75.617,26.741-294.346,61.995-516.393,28.697
		c-84.242-12.633-182.492-31.652-213.761-110.072c-53.819-134.976-8.594-273.982,99.926-375.287
		c-5.218-2.674-10.271-5.277-15.336-7.857c-19.008-9.679-5.961-19.728-33.071-39.515c-50.68-36.99-49.211-34.149-49.834-38.029
		c-1.683-10.49,19.861,9.76-303.356-253.558c-108.451-88.352-84.699-73.137-125.62-72.958c-9.859,0.043-16.675-7.684-13.418-17.047
		c5.406-15.539-13.431-31.7-29.639-33.725c-21.585-2.697-8.885-14.935-28.196-23.026c-15.904-6.664-20.696-11.231-27.461-5.463
		c-3.183,2.715-6.666,5.067-11.006,4.754c-21.123-1.524-39.918,7.46-59.568,12.759c-61.276,16.525-84.021,31.295-157.114-34.253
		c-18.682-16.754-24.052-47.802-15.177-65.951c1.769-3.618,2.706-7.699,3.635-11.659c1.734-7.385,1.715-13.79-7.497-16.813
		c-6.874-2.256-8.207-8.639-5.95-14.498c5.636-14.631-0.247-26.188-8.555-37.341c-18.848-25.305-29.707-22.115-72.231-39.673
		c-38.847-16.042-38.725-1.112-57.389-13.006c-27.013-17.213-36.603-5.238-66.317-20.654
		c-31.587-16.387-49.388-23.139-67.696-28.592c-44.5-13.256-164.548-53.034-216.372-65.089
		c-20.494-4.768-40.12-12.631-59.696-20.406c-25.26-10.034-25.749-39.345-76.192-68.286
		c-62.894-36.084-78.734-33.821-105.464-51.385c-8.321-5.468-15.992-5.021-24.415,0.44
		c-82.374,53.403-180.176,125.283-215.325,221.344c-2.963,8.097-7.103,14.604-14.207,19.264
		c-22.966,15.061-44.053,32.903-68.536,45.74c-23.466,12.304-44.311,36.062-66.297,51.745
		c-25.555,18.229-83.777,73.978-90.762,100.447c-10.474,10.186-25.722,12.897-36.051,23.574
		c-15.431,15.951-32.857,30.013-45.012,48.998c-11.21,17.508-25.634,14.377-36.891,31.748
		c-14.255,21.997-34.723,37.804-53.292,55.57c-39.254,37.555-46.395,61.719-58.625,78.12c-17.944,24.061-26.3,5.89-38.559,23.715
		c-45.237,65.771-59.436,94.623-108.457,116.057c-38.823,16.975-62.103-13.712-111.602-9.014
		c-20.332,1.929-23.693-17.943-36.701-8.929c-9.119,6.32-17.361,13.885-27.382,18.933c-5.892,2.968,5.542,16.444-6.292,17.917
		c-15.498,1.931-22.117,14.525-30.051,24.704c-33.868,43.449-35.806,29.242-53.916,49.139
		c-70.252,77.181-90.272,107.251-108.208,124.302c-25.176,23.93-188.724,210.596-191.75,214.174
		c-33.211,39.256-26.505,48.366-43.701,64.909c-34.737,33.42-39.748,40.799-43.304,48.105c-4.671,9.601-14.391,11.297-22.436,35.245
		c-2.632,7.833-5.966,8.422-18.248,15c6.586,22.181,11.416,29.517-0.98,38.588c-42.602,31.178-33.951,35.532-48.183,26.572
		c-7.363-4.636-15.744-7.401-22.464-13.376c-6.784-6.033-27.189,8.414-23.038-8.56c4.291-17.541-11.115-12.101-14.36-12.396
		c-26.337-2.396-1.25-20.742-21.827-41.297c-9.154-9.145-15.251-20.664-20.587-32.45c-28.894-63.813-99.253-73.563-158.634-40.35
		c-34.659,19.385-62.575,39.563-106.696,174.71c-48.38,148.193-31.484,206.906-47.165,277.413
		c-7.439,33.456-7.53,7.071-12.873,82.707c-4.614,65.314,35.582,173.748,62.282,231.517c3.994,8.641,17.508,24.684,15.488,34.378
		c-2.482,11.909-24.534,17.014-34.209,20.429c-12.649,4.464-21.789-7.351-37.363-6.527c-6.53,0.345-10.018-4.567-9.599-11.42
		c0.259-4.234,4.402-11.346-2.887-15.636c-37.764-22.226-39.041-24.819-46.363-20.612c-2.511,1.443-4.758,3.443-7.891,3.233
		c-0.725-0.909-2.14-2.275-1.966-2.522c10.155-14.426-1.863-18.707-1.517-25.556c0.648-12.815-7.656-21.307-14.294-30.725
		c-13.239-18.784-18.018-29.191-25.132-35.625c-8.154-7.375-10.149-0.62-19.183,1.058c-3.069,0.569-7.977-5.606-4.761-8.713
		c4.367-4.218,15.361-9.336,10.434-13.583c-11.708-10.092-3.757-22.649-10.354-26.717c-13.504-8.33,2.909-18.584-3.255-23.001
		c-10.475-7.508,0.339-17.045-7.441-27.297c-6.574-8.662,4.169-9.711,1.559-17.631c-7.762-23.554-8.836-27.995-5.416-41.761
		c2.656-10.69,5.507-21.654,10.488-31.359c10.579-20.613,3.658-27.248,5.454-61.758c0.9-17.3,3.273-34.558,2.269-51.959
		c-1.179-20.419,46.902-219.204,55.052-251.433c74.714-295.442,293.987-276.028,442.927-128.044
		c6.4,6.359,13.958,10.384,22.959,13.221c23.788-34.774,9.752-5.637,41.544-45.824c13.812-17.46,31.158-31.562,45.653-48.368
		c7.895-9.156,6.44,5.038,23.752-15.455c107.636-127.416,347.391-385.139,344.012-401.88c-1.358-6.729,0.28-12.662,3.036-18.642
		c9.518-20.647,23.908,1.428,38.605-21.177c2.103-3.234,6.217-5.16,9.479-7.734c-3.525-6.836-8.174-10.292,0.271-17.967
		c9.595-8.725,13.667-7,17.983-15.914c10.652-22,26.418-9.22,25.482-22.744c-1.793-25.905-6.081-10.394-3.71-68.101
		c1.592-38.731,18.603-38.552,28.359-76.304c7.554-29.233,25.649-42.749,52.71-54.214c43.798-18.556,40.591-36.174,68.695-42.568
		c-1.892-12.826-33.407-15.506-14.824-42.257c9.997-14.391,20.678-28.434,32.297-41.532c30.088-33.924,19.808-58.845,53.245-95.635
		c9.933-10.929,11.02-15.692,45.022-86.979c3.152-6.609,21.624-21.578,22.766-49.509c0.361-8.838,14.722-11.292,20.983-29.652
		c7.609-22.31,23.302-21.569,26.09-40.446c3.394-22.982,17.006-27.448,29.229-44.56c0.715-1.001,43.741-61.099,52.793-80.668
		c15.666-33.869,29.601-28.821,70.922-101.994c29.088-51.51,46.839-42.452,45.855-63.387c-0.4-8.499-0.721-17.421,2.709-25.931
		c3.065-7.606,1.047-14.878-4.089-21.35c-16.829-21.206-4.433-43.683-15.043-76.205c-2.159-6.618,1.525-98.522,3.133-118.55
		c9.942-123.831,74.723-218.679,149.88-265.363c31.215-19.39,50.817-21.711,60.964-42.129c0.77-1.55,1.854-3.046,3.106-4.238
		c22.103-21.042,29.025-50.303,40.476-76.838c13.127-30.416,22.14-62.481,26.695-90.573c12.459-76.834,30.412-90.257,13.68-137.19
		c-21.711-60.897-9.835-82.453-20.16-100.85c-33.829-60.282-46.686-160.505-51.178-229.604
		c-7.999-123.023,4.949-118.549-16.548-120.699c-2.28-0.228-4.617-0.725-6.459-3.708c4.828-21.584,14.211-37.14,1.161-74.33
		c-4.413-12.577-7.064-13.835-19.413-10.548c-19.645,5.229-86.191,40.96-227.736,27.16c-23.52-2.293-28.06-2.234-32.846,7.681
		c-10.135,20.997-6.972,30.534-21.395,64.863c-2.947,7.013-5.879,14.024-7.129,21.621c-0.472,2.865-0.909,6.036-2.426,8.381
		c-14.665,22.679-22.219,49.071-37.159,71.527c-75.027,112.775-76.81,197.709-89.48,230.15
		c-12.352,31.625-6.835,46.651-13.012,57.813c-26.475,47.847,2.105,99.081-12.194,130.599c-6.857,15.115-8.506,31.542-10.936,47.697
		c-1.571,10.448,0.086,20.083,4.571,30.383c19.763,45.388-8.67,74.992,8.914,117.324c12.8,30.812-19.231,23.656,16.927,97.19
		c5.661,11.513,10.421,4.238,28.06,30.217c4.302,6.337,10.544,10.579,18.099,13.21c15.874,5.531-5.137,33.347-30.621,28.833
		c-56.231-9.958-93.23-50.325-98.532-66.082c-1.289-3.83-3.33-7.448-5.353-10.978c-1.591-2.776-5.688-2.826-7.184-0.108
		c-38.43,69.846-27.623,50.349-43.417,96.813c-7.7,22.651-16.838,33.734-20.447,59.113c-2.277,16.012-12.754,28.611-24.223,39.703
		c-12.389,11.981-38.059,5.768-39.198-7.679c-0.797-9.414-1.202-18.591,3.991-27.215c3.003-4.988,4.805-10.693,7.751-15.722
		c6.978-11.914,11.083-24.422,9.815-38.418c-1.847-20.383,19.888-33.032,14.836-66.849c-7.795,0.34-10.436,5.652-13.005,11.976
		c-30.03,73.918-35.745,81.687-43.248,89.683c-1.932,2.059-3.407,4.896-4.185,7.633c-5.185,18.253-16.442,33.511-24.446,50.361
		c-6.657,14.013-21.188,28.587-36.264,24.423c-16.078-4.441-20.368-10.785-18.336-27.971c1.027-8.683,1.373-17.38,3.389-26.017
		c8.123-34.804,24.964-35.668,35.972-56.804c8.294-15.925,5.516-9.603,37.08-75.431c1.021-2.129,1.806-4.795-0.439-6.412
		c-9.024-6.503-13.434,27.54-35.833,46.149c-26.109,21.691-39.579,71.088-57.434,91.476c-18.774,21.437-59.286,0.922-26.193-69.64
		c4.172-8.895,8.132-20.099,14.448-27.507c5.647-6.624,12.424-9.024,13.082-19.18c1.447-22.308,34.413-51.77,34.6-57.768
		c0.522-16.681,19.445-14.354,12.032-30.055c-3.538-7.496-9.852-5.316-15.215,0.761c-18.99,21.515-44.111,36.699-61.64,59.754
		c-2.433,3.2-6.42,5.191-9.017,8.301c-12.875,15.418-55.333,13.822-46.574-13.72c6.061-19.056,15.576-36.491,26.997-52.808
		c13.192-18.847,28.583-17.594,35.056-28.472c18.481-31.057,59.956-57.388,61.97-91.183c0.491-8.245,1.944-16.267,4.123-24.146
		c8.784-31.757,8.619-31.949,31.498-57.078c7.157-7.861,13.621-16.064,18.694-25.27c8.175-14.833,19.594-27.605,26.414-43.344
		c15.396-35.537-9.323-47.288-1.413-149.107c7.891-101.588,7.512-67.114,8.096-97.516c0.692-35.99,12.768-70.551,15.045-106.266
		c6.124-96.036,53.336-241.881,86.678-333.044c3.412-9.328-3.802-26.119,10.885-44.82c12.317-15.682,19.364-34.683,37.988-39.62
		c11.344-3.007,11.247-8.413,13.9-9.913c29.222-16.52,13.881-9.161,56.104-42.283c39.82-31.237,108.002-77.594,158.555-103.262
		c65.199-33.104,65.772-60.006,262.189-88.309c6.088-0.877,28.585,0.609,32.418-3.581c13.326-14.565,39.939-22.156,54.411-30.93
		c42.194-25.581,109.828-57.437,163.109-50.225c24.653,3.337,29.961-32.081,101.925-53.353
		c53.569-15.835,52.194-10.138,70.496-35.875c3.998-5.623-4.094-24.57,5.056-35.574c0.731-0.88,1.882-2.464,1.576-2.997
		c-5.07-8.82,2.938-16.747,1.57-25.321c-3.722-23.329,10.014-16.32,3.132-29.924c-10.002-19.771-16.253-41.115-28.496-60.081
		c-24.76-38.356-38.746-80.922-44.021-126.342c-2.597-22.359,19.011-33.766,21.135-35.426c4.284-3.349,3.801-9.476-3.118-8.363
		c-14.037,2.26-18.575,1.376-15.548-13.798c1.03-5.159,2.752-10.16,7.397-13.142c6.899-0.558,7.301,15.714,13.4,13.877
		c6.459-1.946,2.928-8.682,1.476-13.227c-1.982-6.204,4.26-10.988,2.276-16.98c1.874,0.277,3.084,0.112,1.342-2.017
		C2180.598,301.316,2180.268,302.108,2179.938,302.901z M3568.167,942.715c12.466-12.146,11.946-10.437,13.235-17.438
		c1.207-6.546-12.844-3.629-12.765,17.131c-0.823,0.882-1.26,0.84-1.309-0.127C3567.608,942.425,3567.888,942.57,3568.167,942.715z"
		/>
	<path d="M2406.578,33.781c-0.63-2.282-0.484-4.692,1.572-5.9c5.947-3.493,12.017-5.217,17.588,0.861l0.267-0.357
		c-6.57,1.771-14.283-0.627-19.685,5.401L2406.578,33.781z"/>
	<path d="M2403.565,33.908c-2.333,0.204,0.232,1.908-1.387,0.254c-0.802-0.819,0.089-1.614,1.509-1.224
		c0.968,0.266,1.927,0.561,2.891,0.843C2405.873,33.797,2404.323,33.842,2403.565,33.908z"/>
	<path d="M3845.77,3858.527c-1.581-1.171,0.03,0.521-0.368,0.41L3845.77,3858.527z"/>
	<path d="M3845.402,3858.938c-0.305-0.184-0.611-0.368-0.917-0.552c0.129,0.346,0.257,0.692,0.386,1.038
		c0.3-0.299,0.599-0.597,0.898-0.896L3845.402,3858.938z"/>
</g>
</svg>
